<svg viewBox="0 0 256 256" fill="none" xmlns="http://www.w3.org/2000/svg">
  <polygon points="128,28 215,78 215,178 128,228 41,178 41,78"
           stroke="currentColor" stroke-width="3" stroke-linejoin="round"/>
  <polygon points="128,52 195,92 195,164 128,204 61,164 61,92"
           stroke="currentColor" stroke-width="1" opacity="0.18" stroke-dasharray="4 6"/>
  <line x1="128" y1="28" x2="128" y2="228" stroke="currentColor" stroke-width="0.6" opacity="0.12"/>
  <line x1="41" y1="128" x2="215" y2="128" stroke="currentColor" stroke-width="0.6" opacity="0.12"/>
  <line x1="51" y1="73" x2="205" y2="183" stroke="currentColor" stroke-width="0.4" opacity="0.07"/>
  <line x1="205" y1="73" x2="51" y2="183" stroke="currentColor" stroke-width="0.4" opacity="0.07"/>
  <g transform="rotate(0, 128, 128)">
    <polygon points="128,78 178,128 128,178 78,128" fill="currentColor" opacity="0.20"/>
  </g>
  <g transform="rotate(60, 128, 128)">
    <polygon points="128,88 168,128 128,168 88,128" fill="currentColor" opacity="0.15"/>
  </g>
  <g transform="rotate(-60, 128, 128)">
    <polygon points="128,88 168,128 128,168 88,128" fill="currentColor" opacity="0.12"/>
  </g>
  <circle cx="128" cy="128" r="7" fill="currentColor"/>
  <circle cx="128" cy="28" r="4" fill="currentColor"/>
  <circle cx="215" cy="78" r="4" fill="currentColor"/>
  <circle cx="215" cy="178" r="4" fill="currentColor"/>
  <circle cx="128" cy="228" r="4" fill="currentColor"/>
  <circle cx="41" cy="178" r="4" fill="currentColor"/>
  <circle cx="41" cy="78" r="4" fill="currentColor"/>
</svg>
